<svg xmlns="http://www.w3.org/2000/svg" viewBox="0 0 470.94 470.94"><defs><style>.cls-1{fill:#f6f6f6;}.cls-2{fill:none;stroke:#1e457c;}.cls-2,.cls-4{stroke-miterlimit:10;stroke-width:14px;}.cls-3{fill:#fd9c09;}.cls-4,.cls-5{fill:#e13304;}.cls-4{stroke:#e13304;}.cls-6{fill:#0e203d;}</style></defs><g id="Layer_2" data-name="Layer 2"><g id="Layer_1-2" data-name="Layer 1"><rect class="cls-1" x="3.44" y="3.31" width="464.49" height="464.49" rx="50.65"/><rect class="cls-2" x="7" y="7" width="456.94" height="456.94" rx="40.3"/><path class="cls-3" d="M302.12,291a5.75,5.75,0,0,0-1.35,4.2c0,.94.19,3.52,1.06,10.49a120.58,120.58,0,0,1,1.35,14.5c0,5.58-1.32,10.24-3.92,13.85a16.26,16.26,0,0,1-4.36,4.15,1.63,1.63,0,0,0,0,2.74,16.26,16.26,0,0,1,4.36,4.15c2.6,3.61,3.92,8.27,3.92,13.85a121,121,0,0,1-1.35,14.52c-.87,7-1.06,9.53-1.06,10.47a5.75,5.75,0,0,0,1.35,4.2c.87.91,2.52,1.37,4.9,1.37h4.54a1.65,1.65,0,0,1,1.64,1.65v23.65a1.65,1.65,0,0,1-1.64,1.64H301.4c-9.72,0-17.55-2.57-23.27-7.63s-8.7-12.4-8.7-21.67a95.11,95.11,0,0,1,1.9-16.07,70.85,70.85,0,0,0,1.44-10.92,6,6,0,0,0-2.18-5.06c-1.56-1.23-4.41-1.85-8.47-1.85h0a1.64,1.64,0,0,1-1.64-1.64V327.37a1.63,1.63,0,0,1,1.64-1.64h0c5.19,0,7.53-.92,8.58-1.69,1.39-1,2.07-2.68,2.07-5.08A70.79,70.79,0,0,0,271.33,308a95.11,95.11,0,0,1-1.9-16.07c0-9.27,2.93-16.56,8.7-21.67s13.55-7.63,23.27-7.63h10.16a1.65,1.65,0,0,1,1.64,1.64V288a1.65,1.65,0,0,1-1.64,1.65H307C304.64,289.6,303,290.06,302.12,291Z"/><path class="cls-3" d="M392,291a5.79,5.79,0,0,1,1.34,4.2c0,.94-.18,3.52-1.05,10.49a120.58,120.58,0,0,0-1.35,14.5c0,5.58,1.32,10.24,3.92,13.85a16.11,16.11,0,0,0,4.36,4.15,1.64,1.64,0,0,1,0,2.74,16.11,16.11,0,0,0-4.36,4.15c-2.6,3.61-3.92,8.27-3.92,13.85a121,121,0,0,0,1.35,14.52c.87,7,1.05,9.53,1.05,10.47a5.79,5.79,0,0,1-1.34,4.2c-.87.91-2.53,1.37-4.9,1.37h-4.54a1.64,1.64,0,0,0-1.64,1.65v23.65a1.64,1.64,0,0,0,1.64,1.64h10.16c9.72,0,17.55-2.57,23.26-7.63s8.71-12.4,8.71-21.67a95.11,95.11,0,0,0-1.9-16.07,69.59,69.59,0,0,1-1.44-10.92,6,6,0,0,1,2.17-5.06c1.57-1.23,4.42-1.85,8.48-1.85h0a1.65,1.65,0,0,0,1.64-1.64V327.37a1.64,1.64,0,0,0-1.64-1.64h0c-5.19,0-7.53-.92-8.59-1.69-1.39-1-2.06-2.68-2.06-5.08A69.53,69.53,0,0,1,422.82,308a95.11,95.11,0,0,0,1.9-16.07c0-9.27-2.93-16.56-8.71-21.67s-13.54-7.63-23.26-7.63H382.59A1.64,1.64,0,0,0,381,264.3V288a1.64,1.64,0,0,0,1.64,1.65h4.54C389.5,289.6,391.16,290.06,392,291Z"/><path class="cls-4" d="M149.35,414.45a7,7,0,0,1-3-.68,7.1,7.1,0,0,1-4-6.4v-36H49.66a7.08,7.08,0,1,1,0-14.16h99.69a7.08,7.08,0,0,1,7.08,7.08v28.16l65.94-53.88-65.94-53.89V312a7.08,7.08,0,0,1-7.08,7.08H49.66a7.08,7.08,0,1,1,0-14.16h92.61V269.74a7.08,7.08,0,0,1,11.56-5.48L238,333.07a7.09,7.09,0,0,1,0,11l-84.21,68.81A7,7,0,0,1,149.35,414.45Z"/><path class="cls-5" d="M281.62,153.51l-40.19-41.29a2.76,2.76,0,0,1,0-3.86l40.19-41.3a2.77,2.77,0,0,1,2-.83h26.89a2.77,2.77,0,0,1,2,4.7l-36.43,37.43a2.76,2.76,0,0,0,0,3.86l36.43,37.43a2.77,2.77,0,0,1-2,4.7H283.6A2.74,2.74,0,0,1,281.62,153.51Z"/><path class="cls-5" d="M402.78,154.89h-26.9a2.77,2.77,0,0,1-2-4.7l36.43-37.43a2.76,2.76,0,0,0,0-3.86L373.9,71.46a2.77,2.77,0,0,1,2-4.7h26.9a2.78,2.78,0,0,1,2,.84L445,108.9a2.76,2.76,0,0,1,0,3.86l-40.19,41.29A2.74,2.74,0,0,1,402.78,154.89Z"/><path class="cls-6" d="M373.92,52.32,333,175.28a5.86,5.86,0,0,1-5.57,4H317a5.87,5.87,0,0,1-5.57-7.72l40.93-123a5.88,5.88,0,0,1,5.57-4h10.38A5.87,5.87,0,0,1,373.92,52.32Z"/><path class="cls-3" d="M50.31,156.83a127.55,127.55,0,0,1-7.73-44.89,127.5,127.5,0,0,1,7.73-44.88q7.57-20.33,20.54-32.9a2,2,0,0,1,1.39-.56h27a2,2,0,0,1,2,2v.14a2,2,0,0,1-.54,1.36A104,104,0,0,0,79.93,70.75a113,113,0,0,0,0,82.52,103.89,103.89,0,0,0,20.79,33.65,2,2,0,0,1,.54,1.36h0a2,2,0,0,1-2,2h-27a2,2,0,0,1-1.39-.56Q57.88,177.15,50.31,156.83Z"/><path class="cls-3" d="M165,189.72a2,2,0,0,1-1.39.56h-27a2,2,0,0,1-2-2h0a2,2,0,0,1,.55-1.36,104,104,0,0,0,20.78-33.65,112.89,112.89,0,0,0,0-82.52A104.14,104.14,0,0,0,135.15,37.1a2,2,0,0,1-.55-1.36V35.6a2,2,0,0,1,2-2h27a2,2,0,0,1,1.39.56q13,12.59,20.53,32.9a127.5,127.5,0,0,1,7.74,44.88,127.56,127.56,0,0,1-7.74,44.89Q178,177.14,165,189.72Z"/></g></g></svg>